<svg id="Aria_Logo_RGB" data-name="Aria Logo RGB" xmlns="http://www.w3.org/2000/svg" width="168.279" height="55.24" viewBox="0 0 168.279 55.24">
  <defs>
    <style>
      .cls-1 {
        fill: #8b00f8;
      }

      .cls-1, .cls-2 {
        fill-rule: evenodd;
      }

      .cls-2 {
        fill: #00a03c;
      }
    </style>
  </defs>
  <g id="text" transform="translate(63.63 13.313)">
    <path id="Path_1" data-name="Path 1" class="cls-1" d="M250.847,126.094H237.308l-2.022,4.9a1.8,1.8,0,0,1-.44.648,1.937,1.937,0,0,1-.623.4,1.8,1.8,0,0,1-.725.12,1.869,1.869,0,0,1-.762-.186,1.626,1.626,0,0,1-1-1.043,2.053,2.053,0,0,1,.1-1.483l10.484-24.7a1.764,1.764,0,0,1,1.736-1.185,1.8,1.8,0,0,1,1.026.3,1.921,1.921,0,0,1,.689.865L256.3,129.447a2.187,2.187,0,0,1,.1,1.476,1.566,1.566,0,0,1-.96,1.051,1.9,1.9,0,0,1-2.55-.984l-2.044-4.9Zm-12-3.845h10.418l-5.187-12.541-5.231,12.541Zm37.475-18.688a10.53,10.53,0,0,1,7.326,2.928,10.276,10.276,0,0,1,2.6,10.238,9.486,9.486,0,0,1-1.209,2.534,9.647,9.647,0,0,1-1.861,2.049,10.284,10.284,0,0,1-2.374,1.475l4.777,6.081a1.925,1.925,0,0,1,.433.656,1.874,1.874,0,0,1,.131.738,1.986,1.986,0,0,1-.169.73,1.852,1.852,0,0,1-.439.626,1.713,1.713,0,0,1-1.253.544,1.8,1.8,0,0,1-1.253-.567l-6.359-7.869h-6.52v6.55a1.812,1.812,0,0,1-.564,1.349,1.877,1.877,0,0,1-1.356.551,1.854,1.854,0,0,1-1.34-.551,1.811,1.811,0,0,1-.564-1.349V105.482a1.844,1.844,0,0,1,.154-.753,2.174,2.174,0,0,1,.41-.611,1.758,1.758,0,0,1,.593-.417,1.842,1.842,0,0,1,.733-.141Zm-6.169,3.89v12.429h6.191a6.807,6.807,0,0,0,2.572-.477,6.536,6.536,0,0,0,2.066-1.3,6.009,6.009,0,0,0,1.37-1.93,5.735,5.735,0,0,0,.506-2.392,5.965,5.965,0,0,0-.506-2.437,6.48,6.48,0,0,0-1.37-2.019,6.37,6.37,0,0,0-2.051-1.379,6.455,6.455,0,0,0-2.542-.5Zm31.482,22.824a1.812,1.812,0,0,1-.564,1.349,1.877,1.877,0,0,1-1.356.551,1.854,1.854,0,0,1-1.34-.551,1.811,1.811,0,0,1-.564-1.349V105.46a1.828,1.828,0,0,1,.564-1.356,1.847,1.847,0,0,1,1.34-.544,1.87,1.87,0,0,1,1.356.544,1.83,1.83,0,0,1,.564,1.356v24.814Zm29.02-4.18h-13.54l-2.022,4.9a1.8,1.8,0,0,1-.439.648,1.943,1.943,0,0,1-.623.4,1.8,1.8,0,0,1-.725.12,1.866,1.866,0,0,1-.761-.186,1.625,1.625,0,0,1-1-1.043,2.051,2.051,0,0,1,.095-1.483l10.484-24.7a1.765,1.765,0,0,1,1.736-1.185,1.8,1.8,0,0,1,1.026.3,1.926,1.926,0,0,1,.689.865l10.528,24.724a2.186,2.186,0,0,1,.1,1.476,1.565,1.565,0,0,1-.96,1.051,1.9,1.9,0,0,1-2.549-.984l-2.044-4.9Zm-12-3.845h10.418l-5.187-12.541Z" transform="translate(-231.644 -103.56)"/>
  </g>
  <g id="logo">
    <path id="Path_2" data-name="Path 2" class="cls-2" d="M106.154,122.039a4.427,4.427,0,1,1-4.347-5.3,4.391,4.391,0,0,1,3.566,1.84,22.816,22.816,0,1,0-26.046-7.021c2.042,2.583,5.106,5.9,8.644,5.823a9.15,9.15,0,0,0,4.817-1.836,39.162,39.162,0,0,0,5.662-5L109.1,99.7a7.444,7.444,0,0,0,0-10.357,7.143,7.143,0,0,0-10.183,0l-1.891,1.924-1.892-1.924a7.142,7.142,0,0,0-10.183,0,7.412,7.412,0,0,0-2,6.419c.353,2.112-2.969,3.048-3.385.719a10.965,10.965,0,0,1,2.936-9.624,10.559,10.559,0,0,1,14.519-.524,10.56,10.56,0,0,1,14.519.524,11,11,0,0,1,0,15.328L100.818,113.1c-8.81,8.967-15.8,11.472-24.346.453A26.8,26.8,0,0,1,70.866,97.1a26.166,26.166,0,1,1,35.288,24.944Zm-4.347-2.494a1.688,1.688,0,1,0,1.659,1.688A1.673,1.673,0,0,0,101.806,119.545Z" transform="translate(-70.866 -70.487)"/>
    <path id="Path_3" data-name="Path 3" class="cls-1" d="M109.514,125.7a3.285,3.285,0,1,1-3.229,3.284,3.257,3.257,0,0,1,3.229-3.284Zm-4.595,8.172c-1.551-1.578-4,.908-2.444,2.486l7.042,7.163.553-.568c4.631-4.758,9.309-9.469,13.964-14.2a1.782,1.782,0,0,0,0-2.486,1.71,1.71,0,0,0-2.445,0l-12.075,12.282Z" transform="translate(-89.665 -103.477)"/>
  </g>
</svg>
